#N canvas 772 95 960 989 10;
#X floatatom 154 228 3 0 0 0 - - -, f 3;
#X floatatom 29 55 3 0 0 0 - - -, f 3;
#X obj 99 75 bng 20 250 50 0 empty empty empty 17 7 0 10 -262144 -1
-1;
#X floatatom 909 199 0 0 0 0 - - -;
#X obj 25 198 ggee/shell;
#X obj 28 122 symbol;
#X symbolatom 24 261 10 0 0 0 - - -, f 10;
#X obj 33 231 symbol;
#X obj 29 17 ctlin 127 16;
#X obj 909 331 ctlout 127 16;
#X floatatom 384 291 3 0 0 0 - - -, f 3;
#X obj 258 150 bng 20 250 50 0 empty empty empty 17 7 0 10 -262144
-1 -1;
#X obj 255 261 ggee/shell;
#X obj 258 185 symbol;
#X symbolatom 254 324 10 0 0 0 - - -, f 10;
#X obj 263 294 symbol;
#X floatatom 619 322 3 0 0 0 - - -, f 3;
#X obj 493 181 bng 20 250 50 0 empty empty empty 17 7 0 10 -262144
-1 -1;
#X obj 490 292 ggee/shell;
#X obj 493 216 symbol;
#X symbolatom 489 355 10 0 0 0 - - -, f 10;
#X obj 498 325 symbol;
#X obj 31 96 bng 15 250 50 0 empty empty empty 17 7 0 10 -262144 -1
-1;
#X msg 924 233 0;
#X obj 175 81 select 0 64 127;
#X msg 931 270 64, f 2;
#X msg 938 301 127, f 4;
#X msg 258 215 dspi=amsynth ~/DSPi/dspiSwitcher.sh;
#X msg 495 246 dspi=sidechain ~/DSPi/dspiSwitcher.sh;
#X msg 29 150 dspi=guitarix ~/DSPi/dspiSwitcher.sh;
#X obj 488 21 loadbang;
#X msg 518 104 \; pd dsp 1;
#X obj 522 59 delay 10000;
#X connect 0 0 6 0;
#X connect 1 0 2 0;
#X connect 1 0 24 0;
#X connect 3 0 9 0;
#X connect 4 0 7 0;
#X connect 5 0 29 0;
#X connect 7 0 6 0;
#X connect 8 0 1 0;
#X connect 10 0 14 0;
#X connect 11 0 13 0;
#X connect 12 0 15 0;
#X connect 13 0 27 0;
#X connect 15 0 14 0;
#X connect 16 0 20 0;
#X connect 17 0 19 0;
#X connect 18 0 21 0;
#X connect 19 0 28 0;
#X connect 21 0 20 0;
#X connect 22 0 5 0;
#X connect 23 0 9 0;
#X connect 24 0 22 0;
#X connect 24 1 11 0;
#X connect 24 2 17 0;
#X connect 25 0 9 0;
#X connect 26 0 9 0;
#X connect 27 0 12 0;
#X connect 28 0 18 0;
#X connect 29 0 4 0;
#X connect 30 0 32 0;
#X connect 32 0 31 0;
