#N canvas 1132 255 960 989 10;
#X floatatom 8 45 3 0 0 0 - - -, f 3;
#X obj 8 64 bng 20 250 50 0 empty empty empty 17 7 0 10 -262144 -1
-1;
#X floatatom 11 239 0 0 0 0 - - -;
#X obj 175 452 ggee/shell;
#X obj 175 396 symbol;
#X symbolatom 175 504 7 0 0 0 - - -, f 7;
#X obj 175 478 symbol;
#X obj 8 17 ctlin 127 16;
#X obj 11 274 ctlout 127 16;
#X obj 209 155 bng 20 250 50 0 empty empty empty 17 7 0 10 -262144
-1 -1;
#X obj 209 319 ggee/shell;
#X obj 209 262 symbol;
#X symbolatom 209 375 7 0 0 0 - - -, f 7;
#X obj 209 347 symbol;
#X obj 243 81 bng 20 250 50 0 empty empty empty 17 7 0 10 -262144 -1
-1;
#X obj 243 185 ggee/shell;
#X obj 243 130 symbol;
#X symbolatom 243 239 7 0 0 0 - - -, f 7;
#X obj 243 212 symbol;
#X msg 46 240 0, f 1;
#X msg 67 240 64, f 2;
#X msg 98 240 127;
#X msg 209 290 dspi=amsynth /home/pi/DSPi/dspiSwitcher.sh;
#X msg 243 158 dspi=debug /home/pi/DSPi/dspiSwitcher.sh;
#X msg 175 424 dspi=guitarix /home/pi/DSPi/dspiSwitcher.sh;
#X obj 448 19 loadbang;
#X msg 448 73 \; pd dsp 1;
#X obj 448 45 delay 10000;
#X obj 175 81 bng 20 250 50 0 empty empty empty 17 7 0 10 -262144 -1
-1;
#X text 121 26 Send a CC on Channel 16 \, CC127 to run script with
arguments;
#X obj 175 59 select 0 64 127;
#X text 516 11 Enables DSP on load to allow MIDI Message acceptance
;
#X text 10 202 Testing Block! Sends CTRL Out on clock;
#X text 167 108 0;
#X text 194 108 64;
#X text 221 108 127;
#X obj 568 278 ctlout 21 9;
#X msg 661 194 127, f 4;
#X obj 661 220 ctlout 91 9;
#X text 654 112 LH3 Kill Reverb;
#X text 568 112 LH1 Hard Sync;
#X text 6 155 LH2 Turn on AM Synth;
#X text 578 76 MIDI Fighter Twister Translation Station;
#X text 552 310 RH1 C4 Note;
#X text 686 310 RH3 C2 Note;
#X obj 9 138 select 127;
#X obj 568 169 select 127;
#X obj 661 168 select 127;
#X obj 531 367 select 127;
#X obj 665 366 select 127;
#X obj 568 196 tgl 15 0 empty empty empty 17 7 0 10 -262144 -1 -1 0
1;
#X msg 601 249 127;
#X msg 568 249 0, f 2;
#X obj 568 221 select 0 1;
#X msg 531 395 48;
#X obj 531 423 makenote 127 125;
#X msg 665 394 24;
#X obj 665 423 makenote 127 250;
#X obj 531 471 noteout 9;
#X obj 568 141 ctlin 8 4;
#X obj 661 141 ctlin 10 4;
#X obj 531 339 ctlin 11 4;
#X obj 665 339 ctlin 13 4;
#X obj 9 110 ctlin 9 4;
#X connect 0 0 1 0;
#X connect 0 0 30 0;
#X connect 2 0 8 0;
#X connect 3 0 6 0;
#X connect 4 0 24 0;
#X connect 6 0 5 0;
#X connect 7 0 0 0;
#X connect 9 0 11 0;
#X connect 10 0 13 0;
#X connect 11 0 22 0;
#X connect 13 0 12 0;
#X connect 14 0 16 0;
#X connect 15 0 18 0;
#X connect 16 0 23 0;
#X connect 18 0 17 0;
#X connect 19 0 8 0;
#X connect 20 0 8 0;
#X connect 21 0 8 0;
#X connect 22 0 10 0;
#X connect 23 0 15 0;
#X connect 24 0 3 0;
#X connect 25 0 27 0;
#X connect 27 0 26 0;
#X connect 28 0 4 0;
#X connect 30 0 28 0;
#X connect 30 1 9 0;
#X connect 30 2 14 0;
#X connect 37 0 38 0;
#X connect 45 0 9 0;
#X connect 46 0 50 0;
#X connect 47 0 37 0;
#X connect 48 0 54 0;
#X connect 49 0 56 0;
#X connect 50 0 53 0;
#X connect 51 0 36 0;
#X connect 52 0 36 0;
#X connect 53 0 52 0;
#X connect 53 1 51 0;
#X connect 54 0 55 0;
#X connect 55 0 58 0;
#X connect 55 1 58 1;
#X connect 56 0 57 0;
#X connect 57 0 58 0;
#X connect 57 1 58 1;
#X connect 59 0 46 0;
#X connect 60 0 47 0;
#X connect 61 0 48 0;
#X connect 62 0 49 0;
#X connect 63 0 45 0;
