#N canvas 744 78 960 989 10;
#X floatatom 8 45 3 0 0 0 - - -, f 3;
#X obj 8 64 bng 20 250 50 0 empty empty empty 17 7 0 10 -262144 -1
-1;
#X floatatom 545 89 0 0 0 0 - - -;
#X obj 175 452 ggee/shell;
#X obj 175 396 symbol;
#X symbolatom 175 504 7 0 0 0 - - -, f 7;
#X obj 175 478 symbol;
#X obj 8 17 ctlin 127 16;
#X obj 545 200 ctlout 127 16;
#X obj 209 81 bng 20 250 50 0 empty empty empty 17 7 0 10 -262144 -1
-1;
#X obj 209 319 ggee/shell;
#X obj 209 262 symbol;
#X symbolatom 209 375 7 0 0 0 - - -, f 7;
#X obj 209 347 symbol;
#X obj 243 81 bng 20 250 50 0 empty empty empty 17 7 0 10 -262144 -1
-1;
#X obj 243 185 ggee/shell;
#X obj 243 130 symbol;
#X symbolatom 243 239 7 0 0 0 - - -, f 7;
#X obj 243 212 symbol;
#X msg 560 116 0;
#X msg 567 142 64, f 2;
#X msg 574 170 127, f 4;
#X msg 209 290 dspi=amsynth /home/pi/DSPi/dspiSwitcher.sh;
#X msg 243 158 dspi=debug /home/pi/DSPi/dspiSwitcher.sh;
#X msg 175 424 dspi=guitarix /home/pi/DSPi/dspiSwitcher.sh;
#X obj 448 19 loadbang;
#X msg 448 73 \; pd dsp 1;
#X obj 448 45 delay 10000;
#X obj 175 81 bng 20 250 50 0 empty empty empty 17 7 0 10 -262144 -1
-1;
#X text 121 26 Send a CC on Channel 16 \, CC127 to run script with
arguments;
#X obj 175 59 select 0 64 127;
#X text 516 11 Enables DSP on load to allow MIDI Message acceptance
;
#X text 544 51 Testing Block! Sends CTRL Out on clock;
#X text 164 82 0;
#X text 194 108 64;
#X text 221 108 127;
#X connect 0 0 1 0;
#X connect 0 0 30 0;
#X connect 2 0 8 0;
#X connect 3 0 6 0;
#X connect 4 0 24 0;
#X connect 6 0 5 0;
#X connect 7 0 0 0;
#X connect 9 0 11 0;
#X connect 10 0 13 0;
#X connect 11 0 22 0;
#X connect 13 0 12 0;
#X connect 14 0 16 0;
#X connect 15 0 18 0;
#X connect 16 0 23 0;
#X connect 18 0 17 0;
#X connect 19 0 8 0;
#X connect 20 0 8 0;
#X connect 21 0 8 0;
#X connect 22 0 10 0;
#X connect 23 0 15 0;
#X connect 24 0 3 0;
#X connect 25 0 27 0;
#X connect 27 0 26 0;
#X connect 28 0 4 0;
#X connect 30 0 28 0;
#X connect 30 1 9 0;
#X connect 30 2 14 0;
