#N canvas 1244 331 450 300 10;
#X obj 234 136 select 1;
#X obj 234 49 ctlin \$3 \$4;
#X obj 234 210 ctlout \$1 \$2;
#X obj 82 52 ctlin \$1 \$2;
#X obj 88 182 ctlout \$3 \$4;
#X text 82 28 MFT -> Octa;
#X text 237 26 Octa -> MFT;
#X msg 290 183 40;
#X obj 179 88 tgl 15 0 empty empty empty 17 7 0 10 -262144 -1 -1 0
1;
#X obj 179 69 bng 15 250 50 0 empty empty empty 17 7 0 10 -262144 -1
-1;
#X msg 234 183 85;
#X text 198 88 tgl is circumventing a bug with MFT;
#X connect 0 0 10 0;
#X connect 0 1 7 0;
#X connect 1 0 8 0;
#X connect 3 0 9 0;
#X connect 7 0 2 0;
#X connect 8 0 0 0;
#X connect 8 0 4 0;
#X connect 9 0 8 0;
#X connect 10 0 2 0;
