#N canvas 0 78 1920 1002 10;
#X floatatom 8 45 3 0 0 0 - - -, f 3;
#X obj 8 64 bng 20 250 50 0 empty empty empty 17 7 0 10 -262144 -1
-1;
#X floatatom 611 64 0 0 0 0 - - -;
#X obj 175 303 symbol;
#X obj 209 155 bng 20 250 50 0 empty empty empty 17 7 0 10 -262144
-1 -1;
#X obj 209 214 symbol;
#X obj 243 81 bng 20 250 50 0 empty empty empty 17 7 0 10 -262144 -1
-1;
#X obj 243 130 symbol;
#X msg 646 65 0, f 1;
#X msg 667 65 64, f 2;
#X msg 698 65 127;
#X obj 356 57 loadbang;
#X msg 356 111 \; pd dsp 1;
#X obj 356 83 delay 10000;
#X obj 175 251 bng 20 250 50 0 empty empty empty 17 7 0 10 -262144
-1 -1;
#X obj 175 59 select 0 64 127;
#X text 254 14 Enables DSP on load to allow MIDI Message acceptance
;
#X text 167 108 0;
#X text 194 108 64;
#X text 221 108 127;
#X obj 119 597 ctlout 21 9;
#X obj 212 597 ctlout 91 9;
#X text 218 433 LH3 Kill Reverb;
#X text 520 435 RH1 C4 Note;
#X text 654 435 RH3 C2 Note;
#X obj 9 138 select 127;
#X obj 119 488 select 127;
#X obj 212 487 select 127;
#X obj 536 492 select 127;
#X obj 670 491 select 127;
#X obj 119 515 tgl 15 0 empty empty empty 17 7 0 10 -262144 -1 -1 0
1;
#X msg 152 568 127;
#X msg 119 568 0, f 1;
#X obj 119 540 select 0 1;
#X msg 536 520 48, f 2;
#X obj 536 548 makenote 127 125;
#X msg 670 519 24, f 2;
#X obj 670 548 makenote 127 250;
#X obj 636 598 noteout 9;
#X obj 382 836 pgmout 9;
#X obj 212 515 tgl 15 0 empty empty empty 17 7 0 10 -262144 -1 -1 0
1;
#X msg 245 568 127;
#X msg 212 568 0, f 1;
#X obj 212 540 select 0 1;
#X obj 175 362 s exec;
#X obj 90 331 ggee/shell;
#X symbolatom 90 384 7 0 0 0 - - -, f 7;
#X obj 90 357 symbol;
#X obj 90 301 r exec;
#X obj 209 274 s exec;
#X obj 243 188 s exec;
#X text 227 1071 Audio Mutes;
#X text 605 1072 MIDI Mutes;
#X msg 175 331 /home/pi/DSPi/bash/dspiSwitcher.sh guitarix;
#X text 222 396 ==========MIDI Fighter Twister Translation Station==========
;
#X msg 209 242 /home/pi/DSPi/bash/dspiSwitcher.sh amsynth;
#X msg 242 158 /home/pi/DSPi/bash/dspiSwitcher.sh debug;
#X text 222 415 ==============amSynth -> MFT Translation Layer==============
;
#X obj 124 637 midiCcBridge 0 17 80 9;
#X obj 295 637 midiCcBridge 1 17 1 9;
#X obj 466 637 midiCcBridge 2 17 2 9;
#X obj 646 637 midiCcBridge 3 17 3 9;
#X obj 124 661 midiCcBridge 4 17 4 9;
#X obj 295 661 midiCcBridge 5 17 5 9;
#X obj 466 661 midiCcBridge 6 17 6 9;
#X obj 646 661 midiCcBridge 7 17 7 9;
#X obj 124 684 midiCcBridge 8 17 8 9;
#X obj 295 684 midiCcBridge 9 17 9 9;
#X obj 466 684 midiCcBridge 10 17 10 9;
#X obj 646 684 midiCcBridge 11 17 11 9;
#X obj 124 709 midiCcBridge 12 17 12 9;
#X obj 295 709 midiCcBridge 13 17 13 9;
#X obj 466 709 midiCcBridge 14 17 14 9;
#X obj 646 709 midiCcBridge 15 17 15 9;
#X obj 124 747 midiCcBridge 0 21 64 9;
#X obj 295 747 midiCcBridge 1 21 65 9;
#X obj 466 747 midiCcBridge 2 21 66 9;
#X obj 646 747 midiCcBridge 3 21 67 9;
#X obj 124 771 midiCcBridge 4 21 68 9;
#X obj 295 771 midiCcBridge 5 21 69 9;
#X obj 466 771 midiCcBridge 6 21 70 9;
#X obj 646 771 midiCcBridge 7 21 71 9;
#X obj 124 794 midiCcBridge 8 21 72 9;
#X obj 295 794 midiCcBridge 9 21 73 9;
#X obj 466 794 midiCcBridge 10 21 74 9;
#X obj 646 794 midiCcBridge 11 21 75 9;
#X obj 124 819 midiCcBridge 12 21 0 9;
#X obj 466 819 midiCcBridge 14 21 78 9;
#X obj 646 819 midiCcBridge 15 21 79 9;
#X text 235 857 ================Octa -> MFT Translation Layer===============
;
#X obj 94 877 midiCcBridge 16 17 46 1;
#X obj 275 877 midiCcBridge 17 17 46 5;
#X obj 456 877 midiCcBridge 18 17 47 1;
#X obj 646 877 midiCcBridge 19 17 47 5;
#X obj 94 901 midiCcBridge 20 17 46 2;
#X obj 275 901 midiCcBridge 21 17 46 6;
#X obj 456 901 midiCcBridge 22 17 47 2;
#X obj 646 901 midiCcBridge 23 17 47 6;
#X obj 94 924 midiCcBridge 24 17 46 3;
#X obj 275 924 midiCcBridge 25 17 46 7;
#X obj 456 924 midiCcBridge 26 17 47 3;
#X obj 646 924 midiCcBridge 27 17 47 7;
#X obj 94 949 midiCcBridge 28 17 46 4;
#X obj 275 949 midiCcBridge 29 17 46 8;
#X obj 456 949 midiCcBridge 30 17 47 4;
#X obj 646 949 midiCcBridge 31 17 47 8;
#X obj 94 977 mftLedBugFixer 16 18 49 1;
#X obj 275 977 mftLedBugFixer 17 18 49 5;
#X obj 456 977 mftLedBugFixer 18 18 112 1;
#X obj 646 977 mftLedBugFixer 19 18 116 1;
#X obj 94 1001 mftLedBugFixer 20 18 49 2;
#X obj 275 1001 mftLedBugFixer 21 18 49 6;
#X obj 456 1001 mftLedBugFixer 22 18 113 1;
#X obj 646 1001 mftLedBugFixer 23 18 117 1;
#X obj 94 1024 mftLedBugFixer 24 18 49 3;
#X obj 275 1024 mftLedBugFixer 25 18 49 7;
#X obj 456 1024 mftLedBugFixer 26 18 114 1;
#X obj 646 1024 mftLedBugFixer 27 18 118 1;
#X obj 94 1049 mftLedBugFixer 28 18 49 4;
#X obj 275 1049 mftLedBugFixer 29 18 49 8;
#X obj 456 1049 mftLedBugFixer 30 18 115 1;
#X obj 646 1049 mftLedBugFixer 31 18 119 1;
#X text 235 1096 ===============Guitarix -> MFT Translation Layer============
;
#X obj 94 1116 midiCcBridge 48 17 64 11;
#X obj 275 1116 midiCcBridge 49 17 65 11;
#X obj 456 1116 midiCcBridge 50 17 66 11;
#X obj 646 1116 midiCcBridge 51 17 67 11;
#X obj 94 1140 midiCcBridge 52 17 68 11;
#X obj 275 1140 midiCcBridge 53 17 69 11;
#X obj 456 1140 midiCcBridge 54 17 70 11;
#X obj 646 1140 midiCcBridge 55 17 71 11;
#X obj 94 1163 midiCcBridge 56 17 72 11;
#X obj 275 1163 midiCcBridge 57 17 73 11;
#X obj 456 1163 midiCcBridge 58 17 74 11;
#X obj 646 1163 midiCcBridge 59 17 75 11;
#X obj 94 1188 midiCcBridge 60 17 76 11;
#X obj 275 1188 midiCcBridge 61 17 77 11;
#X obj 456 1188 midiCcBridge 62 17 78 11;
#X obj 646 1188 midiCcBridge 63 17 79 11;
#X obj 94 1216 midiCcBridge 48 21 80 11;
#X obj 275 1216 midiCcBridge 49 21 81 11;
#X obj 456 1216 midiCcBridge 50 21 82 11;
#X obj 646 1216 midiCcBridge 51 21 83 11;
#X obj 94 1240 midiCcBridge 52 21 84 11;
#X obj 275 1240 midiCcBridge 53 21 85 11;
#X obj 456 1240 midiCcBridge 54 21 86 11;
#X obj 646 1240 midiCcBridge 55 21 87 11;
#X obj 94 1263 midiCcBridge 56 21 88 11;
#X obj 275 1263 midiCcBridge 57 21 89 11;
#X obj 456 1263 midiCcBridge 58 21 90 11;
#X obj 646 1263 midiCcBridge 59 21 91 11;
#X obj 94 1288 midiCcBridge 60 21 92 11;
#X obj 275 1288 midiCcBridge 61 21 93 11;
#X obj 456 1288 midiCcBridge 62 21 94 11;
#X obj 646 1288 midiCcBridge 63 21 95 11;
#X obj 8 17 pgmin 16;
#X obj 611 95 pgmout 16;
#X obj 2 1145 select 127;
#X obj 2 1172 tgl 15 0 empty empty empty 17 7 0 10 -262144 -1 -1 0
1;
#X msg 35 1225 127;
#X msg 2 1225 0, f 1;
#X obj 2 1197 select 0 1;
#X text 2 1088 Toggle Dist On;
#X obj 119 460 ctlin 8 20;
#X obj 212 460 ctlin 10 20;
#X obj 535 464 ctlin 11 20;
#X obj 670 464 ctlin 13 20;
#X obj 2 1117 ctlin 26 20;
#X obj 2 1254 ctlout 96 11;
#X obj 9 110 ctlin 9 20;
#X text 556 45 Testing Area! Sends CTRL Out for switching;
#X obj 5 234 select 127;
#X text 2 251 Bank 4 LH2 Guitarix;
#X text 6 155 Bank 1 LH2 AM Synth;
#X obj 5 206 ctlin 27 20;
#X obj 300 819 ctlin 13 21;
#X obj 8 904 select 127;
#X obj 8 931 tgl 15 0 empty empty empty 17 7 0 10 -262144 -1 -1 0 1
;
#X obj 8 876 ctlin 14 20;
#X text 8 847 Toggle Record;
#X obj 8 956 select 1 0;
#X obj 12 1007 s recStop;
#X obj 8 978 s recStart;
#X obj 613 139 r recStart;
#X obj 732 204 r recStop;
#X msg 613 161 jack_capture --daemon -O 7777 &;
#X obj 613 183 ggee/shell;
#X obj 613 205 symbol;
#X symbolatom 613 227 10 0 0 0 - - -, f 10;
#X obj 732 247 ggee/shell;
#X obj 732 269 symbol;
#X symbolatom 732 291 10 0 0 0 - - -, f 10;
#X msg 732 225 oscsend localhost 7777 /jack_capture/stop;
#X text 119 431 LH1 Hard Sync;
#X msg 579 156 127;
#X msg 698 221 0;
#X obj 579 348 ctlout 29 19;
#X connect 0 0 1 0;
#X connect 0 0 15 0;
#X connect 2 0 156 0;
#X connect 3 0 53 0;
#X connect 4 0 5 0;
#X connect 5 0 55 0;
#X connect 6 0 7 0;
#X connect 7 0 56 0;
#X connect 8 0 156 0;
#X connect 9 0 156 0;
#X connect 10 0 156 0;
#X connect 11 0 13 0;
#X connect 13 0 12 0;
#X connect 14 0 3 0;
#X connect 15 0 14 0;
#X connect 15 1 4 0;
#X connect 15 2 6 0;
#X connect 25 0 4 0;
#X connect 26 0 30 0;
#X connect 27 0 40 0;
#X connect 28 0 34 0;
#X connect 29 0 36 0;
#X connect 30 0 33 0;
#X connect 31 0 20 0;
#X connect 32 0 20 0;
#X connect 33 0 32 0;
#X connect 33 1 31 0;
#X connect 34 0 35 0;
#X connect 35 0 38 0;
#X connect 35 1 38 1;
#X connect 36 0 37 0;
#X connect 37 0 38 0;
#X connect 37 1 38 1;
#X connect 40 0 43 0;
#X connect 41 0 21 0;
#X connect 42 0 21 0;
#X connect 43 0 42 0;
#X connect 43 1 41 0;
#X connect 45 0 47 0;
#X connect 47 0 46 0;
#X connect 48 0 45 0;
#X connect 53 0 44 0;
#X connect 55 0 49 0;
#X connect 56 0 50 0;
#X connect 155 0 0 0;
#X connect 157 0 158 0;
#X connect 158 0 161 0;
#X connect 159 0 168 0;
#X connect 160 0 168 0;
#X connect 161 0 160 0;
#X connect 161 1 159 0;
#X connect 163 0 26 0;
#X connect 164 0 27 0;
#X connect 165 0 28 0;
#X connect 166 0 29 0;
#X connect 167 0 157 0;
#X connect 169 0 25 0;
#X connect 171 0 14 0;
#X connect 174 0 171 0;
#X connect 175 0 39 0;
#X connect 176 0 177 0;
#X connect 177 0 180 0;
#X connect 178 0 176 0;
#X connect 180 0 182 0;
#X connect 180 1 181 0;
#X connect 183 0 185 0;
#X connect 183 0 194 0;
#X connect 184 0 192 0;
#X connect 184 0 195 0;
#X connect 185 0 186 0;
#X connect 186 0 187 0;
#X connect 187 0 188 0;
#X connect 189 0 190 0;
#X connect 190 0 191 0;
#X connect 192 0 189 0;
#X connect 194 0 196 0;
#X connect 195 0 196 0;
