#N canvas 176 264 450 300 10;
#X obj 234 77 select 1;
#X msg 234 103 127;
#X obj 234 49 ctlin \$3 \$4;
#X obj 234 130 ctlout \$1 \$2;
#X obj 82 52 ctlin \$1 \$2;
#X obj 82 133 ctlout \$3 \$4;
#X obj 82 80 select 127;
#X msg 82 106 1;
#X text 82 28 MFT -> Octa;
#X text 237 26 Octa -> MFT;
#X connect 0 0 1 0;
#X connect 0 1 3 0;
#X connect 1 0 3 0;
#X connect 2 0 0 0;
#X connect 4 0 6 0;
#X connect 6 0 7 0;
#X connect 6 1 5 0;
#X connect 7 0 5 0;
