#N canvas 1 78 958 993 10;
#X floatatom 8 45 3 0 0 0 - - -, f 3;
#X obj 8 64 bng 20 250 50 0 empty empty empty 17 7 0 10 -262144 -1
-1;
#X floatatom 679 58 0 0 0 0 - - -;
#X obj 175 303 symbol;
#X obj 8 17 ctlin 127 16;
#X obj 679 88 ctlout 127 16;
#X obj 209 155 bng 20 250 50 0 empty empty empty 17 7 0 10 -262144
-1 -1;
#X obj 209 214 symbol;
#X obj 243 81 bng 20 250 50 0 empty empty empty 17 7 0 10 -262144 -1
-1;
#X obj 243 130 symbol;
#X msg 714 59 0, f 1;
#X msg 735 59 64, f 2;
#X msg 766 59 127;
#X obj 816 53 loadbang;
#X msg 816 107 \; pd dsp 1;
#X obj 816 79 delay 10000;
#X obj 175 81 bng 20 250 50 0 empty empty empty 17 7 0 10 -262144 -1
-1;
#X text 24 33 Send a CC on Channel 16 \, CC127 to run script with arguments
;
#X obj 175 59 select 0 64 127;
#X text 541 15 Enables DSP on load to allow MIDI Message acceptance
;
#X text 167 108 0;
#X text 194 108 64;
#X text 221 108 127;
#X obj 119 597 ctlout 21 9;
#X obj 212 597 ctlout 91 9;
#X text 218 433 LH3 Kill Reverb;
#X text 119 431 LH1 Hard Sync;
#X text 6 155 LH2 Turn on AM Synth;
#X text 520 435 RH1 C4 Note;
#X text 654 435 RH3 C2 Note;
#X obj 9 138 select 127;
#X obj 119 488 select 127;
#X obj 212 487 select 127;
#X obj 536 492 select 127;
#X obj 670 491 select 127;
#X obj 119 515 tgl 15 0 empty empty empty 17 7 0 10 -262144 -1 -1 0
1;
#X msg 152 568 127;
#X msg 119 568 0, f 1;
#X obj 119 540 select 0 1;
#X msg 536 520 48, f 2;
#X obj 536 548 makenote 127 125;
#X msg 670 519 24, f 2;
#X obj 670 548 makenote 127 250;
#X obj 536 578 noteout 9;
#X obj 372 836 pgmout 9;
#X obj 212 515 tgl 15 0 empty empty empty 17 7 0 10 -262144 -1 -1 0
1;
#X msg 245 568 127;
#X msg 212 568 0, f 1;
#X obj 212 540 select 0 1;
#X obj 175 362 s exec;
#X obj 582 89 ggee/shell;
#X symbolatom 582 142 7 0 0 0 - - -, f 7;
#X obj 582 115 symbol;
#X obj 582 59 r exec;
#X obj 209 274 s exec;
#X obj 243 188 s exec;
#X floatatom 580 175 0 0 0 0 - - -;
#X msg 615 176 0, f 1;
#X msg 636 176 1, f 2;
#X obj 580 210 ctlout 49 11;
#X text 543 238 Testing Block! Sends CTRL Out for switching;
#X text 227 1071 Audio Mutes;
#X text 605 1072 MIDI Mutes;
#X msg 175 331 /home/pi/DSPi/bash/dspiSwitcher.sh guitarix;
#X text 222 396 ==========MIDI Fighter Twister Translation Station==========
;
#X msg 209 242 /home/pi/DSPi/bash/dspiSwitcher.sh amsynth;
#X msg 242 158 /home/pi/DSPi/bash/dspiSwitcher.sh debug;
#X text 222 415 ==============amSynth -> MFT Translation Layer==============
;
#X obj 124 637 midiCcBridge 0 1 80 9;
#X obj 285 637 midiCcBridge 1 1 1 9;
#X obj 446 637 midiCcBridge 2 1 2 9;
#X obj 606 637 midiCcBridge 3 1 3 9;
#X obj 124 661 midiCcBridge 4 1 4 9;
#X obj 285 661 midiCcBridge 5 1 5 9;
#X obj 446 661 midiCcBridge 6 1 6 9;
#X obj 606 661 midiCcBridge 7 1 7 9;
#X obj 124 684 midiCcBridge 8 1 8 9;
#X obj 285 684 midiCcBridge 9 1 9 9;
#X obj 446 684 midiCcBridge 10 1 10 9;
#X obj 606 684 midiCcBridge 11 1 11 9;
#X obj 124 709 midiCcBridge 12 1 12 9;
#X obj 285 709 midiCcBridge 13 1 13 9;
#X obj 446 709 midiCcBridge 14 1 14 9;
#X obj 606 709 midiCcBridge 15 1 15 9;
#X obj 124 747 midiCcBridge 0 5 64 9;
#X obj 285 747 midiCcBridge 1 5 65 9;
#X obj 446 747 midiCcBridge 2 5 66 9;
#X obj 606 747 midiCcBridge 3 5 67 9;
#X obj 124 771 midiCcBridge 4 5 68 9;
#X obj 285 771 midiCcBridge 5 5 69 9;
#X obj 446 771 midiCcBridge 6 5 70 9;
#X obj 606 771 midiCcBridge 7 5 71 9;
#X obj 124 794 midiCcBridge 8 5 72 9;
#X obj 285 794 midiCcBridge 9 5 73 9;
#X obj 446 794 midiCcBridge 10 5 74 9;
#X obj 606 794 midiCcBridge 11 5 75 9;
#X obj 124 819 midiCcBridge 12 5 0 9;
#X obj 446 819 midiCcBridge 14 5 78 9;
#X obj 606 819 midiCcBridge 15 5 79 9;
#X text 235 857 ================Octa -> MFT Translation Layer===============
;
#X obj 94 877 midiCcBridge 16 1 46 11;
#X obj 275 877 midiCcBridge 17 1 46 5;
#X obj 456 877 midiCcBridge 18 1 47 11;
#X obj 646 877 midiCcBridge 19 1 47 5;
#X obj 94 901 midiCcBridge 20 1 46 2;
#X obj 275 901 midiCcBridge 21 1 46 6;
#X obj 456 901 midiCcBridge 22 1 47 2;
#X obj 646 901 midiCcBridge 23 1 47 6;
#X obj 94 924 midiCcBridge 24 1 46 13;
#X obj 275 924 midiCcBridge 25 1 46 7;
#X obj 456 924 midiCcBridge 26 1 47 13;
#X obj 646 924 midiCcBridge 27 1 47 7;
#X obj 94 949 midiCcBridge 28 1 46 4;
#X obj 275 949 midiCcBridge 29 1 46 8;
#X obj 456 949 midiCcBridge 30 1 47 4;
#X obj 646 949 midiCcBridge 31 1 47 8;
#X obj 94 977 midiOneToFull 16 2 49 11;
#X obj 275 977 midiOneToFull 17 2 49 5;
#X obj 456 977 midiOneToFull 18 2 112 11;
#X obj 646 977 midiOneToFull 19 2 116 5;
#X obj 94 1001 midiOneToFull 20 2 49 2;
#X obj 275 1001 midiOneToFull 21 2 49 6;
#X obj 456 1001 midiOneToFull 22 2 113 2;
#X obj 646 1001 midiOneToFull 23 2 117 6;
#X obj 94 1024 midiOneToFull 24 2 49 13;
#X obj 275 1024 midiOneToFull 25 2 49 7;
#X obj 456 1024 midiOneToFull 26 2 114 13;
#X obj 646 1024 midiOneToFull 27 2 118 7;
#X obj 94 1049 midiOneToFull 28 2 49 4;
#X obj 275 1049 midiOneToFull 29 2 49 8;
#X obj 456 1049 midiOneToFull 30 2 115 4;
#X obj 646 1049 midiOneToFull 31 2 119 8;
#X obj 290 819 ctlin 13 5;
#X obj 119 460 ctlin 8 3;
#X obj 212 460 ctlin 10 3;
#X obj 535 464 ctlin 11 3;
#X obj 670 464 ctlin 13 3;
#X obj 9 110 ctlin 9 3;
#X connect 0 0 1 0;
#X connect 0 0 18 0;
#X connect 2 0 5 0;
#X connect 3 0 63 0;
#X connect 4 0 0 0;
#X connect 6 0 7 0;
#X connect 7 0 65 0;
#X connect 8 0 9 0;
#X connect 9 0 66 0;
#X connect 10 0 5 0;
#X connect 11 0 5 0;
#X connect 12 0 5 0;
#X connect 13 0 15 0;
#X connect 15 0 14 0;
#X connect 16 0 3 0;
#X connect 18 0 16 0;
#X connect 18 1 6 0;
#X connect 18 2 8 0;
#X connect 30 0 6 0;
#X connect 31 0 35 0;
#X connect 32 0 45 0;
#X connect 33 0 39 0;
#X connect 34 0 41 0;
#X connect 35 0 38 0;
#X connect 36 0 23 0;
#X connect 37 0 23 0;
#X connect 38 0 37 0;
#X connect 38 1 36 0;
#X connect 39 0 40 0;
#X connect 40 0 43 0;
#X connect 40 1 43 1;
#X connect 41 0 42 0;
#X connect 42 0 43 0;
#X connect 42 1 43 1;
#X connect 45 0 48 0;
#X connect 46 0 24 0;
#X connect 47 0 24 0;
#X connect 48 0 47 0;
#X connect 48 1 46 0;
#X connect 50 0 52 0;
#X connect 52 0 51 0;
#X connect 53 0 50 0;
#X connect 56 0 59 0;
#X connect 57 0 59 0;
#X connect 58 0 59 0;
#X connect 63 0 49 0;
#X connect 65 0 54 0;
#X connect 66 0 55 0;
#X connect 132 0 44 0;
#X connect 133 0 31 0;
#X connect 134 0 32 0;
#X connect 135 0 33 0;
#X connect 136 0 34 0;
#X connect 137 0 30 0;
