#N canvas 945 90 960 989 10;
#X floatatom 8 45 3 0 0 0 - - -, f 3;
#X obj 8 64 bng 20 250 50 0 empty empty empty 17 7 0 10 -262144 -1
-1;
#X floatatom 679 58 0 0 0 0 - - -;
#X obj 175 303 symbol;
#X obj 8 17 ctlin 127 16;
#X obj 679 88 ctlout 127 16;
#X obj 209 155 bng 20 250 50 0 empty empty empty 17 7 0 10 -262144
-1 -1;
#X obj 209 214 symbol;
#X obj 243 81 bng 20 250 50 0 empty empty empty 17 7 0 10 -262144 -1
-1;
#X obj 243 130 symbol;
#X msg 714 59 0, f 1;
#X msg 735 59 64, f 2;
#X msg 766 59 127;
#X obj 816 53 loadbang;
#X msg 816 107 \; pd dsp 1;
#X obj 816 79 delay 10000;
#X obj 175 81 bng 20 250 50 0 empty empty empty 17 7 0 10 -262144 -1
-1;
#X text 24 33 Send a CC on Channel 16 \, CC127 to run script with arguments
;
#X obj 175 59 select 0 64 127;
#X text 541 15 Enables DSP on load to allow MIDI Message acceptance
;
#X text 167 108 0;
#X text 194 108 64;
#X text 221 108 127;
#X obj 119 597 ctlout 21 9;
#X obj 212 597 ctlout 91 9;
#X text 218 433 LH3 Kill Reverb;
#X text 119 431 LH1 Hard Sync;
#X text 6 155 LH2 Turn on AM Synth;
#X text 520 435 RH1 C4 Note;
#X text 654 435 RH3 C2 Note;
#X obj 9 138 select 127;
#X obj 119 488 select 127;
#X obj 212 487 select 127;
#X obj 536 492 select 127;
#X obj 670 491 select 127;
#X obj 119 515 tgl 15 0 empty empty empty 17 7 0 10 -262144 -1 -1 0
1;
#X msg 152 568 127;
#X msg 119 568 0, f 1;
#X obj 119 540 select 0 1;
#X msg 536 520 48, f 2;
#X obj 536 548 makenote 127 125;
#X msg 670 519 24, f 2;
#X obj 670 548 makenote 127 250;
#X obj 536 578 noteout 9;
#X obj 119 460 ctlin 8 14;
#X obj 212 460 ctlin 10 14;
#X obj 536 464 ctlin 11 14;
#X obj 670 464 ctlin 13 14;
#X obj 9 110 ctlin 9 14;
#X obj 360 487 pgmout 9;
#X obj 360 460 ctlin 125 16;
#X obj 212 515 tgl 15 0 empty empty empty 17 7 0 10 -262144 -1 -1 0
1;
#X msg 245 568 127;
#X msg 212 568 0, f 1;
#X obj 212 540 select 0 1;
#X obj 175 362 s exec;
#X obj 582 89 ggee/shell;
#X symbolatom 582 142 7 0 0 0 - - -, f 7;
#X obj 582 115 symbol;
#X obj 582 59 r exec;
#X obj 209 274 s exec;
#X obj 243 188 s exec;
#X floatatom 52 735 0 0 0 0 - - -;
#X msg 87 736 0, f 1;
#X obj 473 667 midiOneToFull 49 11;
#X obj 473 693 midiOneToFull 49 2;
#X obj 473 719 midiOneToFull 49 13;
#X obj 473 744 midiOneToFull 49 4;
#X obj 621 668 midiOneToFull 49 5;
#X obj 621 694 midiOneToFull 49 6;
#X obj 620 720 midiOneToFull 49 7;
#X obj 620 746 midiOneToFull 49 8;
#X msg 108 736 1, f 2;
#X obj 52 770 ctlout 49 11;
#X text 15 798 Testing Block! Sends CTRL Out for switching;
#X obj 168 667 midiOneToFull 112 11;
#X obj 168 693 midiOneToFull 113 11;
#X obj 168 719 midiOneToFull 114 11;
#X obj 168 744 midiOneToFull 115 11;
#X obj 320 667 midiOneToFull 116 11;
#X obj 320 692 midiOneToFull 117 11;
#X obj 320 718 midiOneToFull 118 11;
#X obj 319 744 midiOneToFull 119 11;
#X text 571 767 Audio Mutes;
#X text 282 766 MIDI Mutes;
#X text 342 434 CC to Program Change;
#X msg 175 331 /home/pi/DSPi/bash/dspiSwitcher.sh guitarix;
#X obj 758 746 ctlin 46;
#X obj 758 777 ctlout 46;
#X obj 843 746 ctlin 47;
#X obj 843 777 ctlout 47;
#X text 650 803 Allowing Octa Volume and Cue through;
#X text 230 637 ================Octa -> MFT Translation Layer===============
;
#X text 222 396 ==========MIDI Fighter Twister Translation Station==========
;
#X msg 209 242 /home/pi/DSPi/bash/dspiSwitcher.sh amsynth;
#X msg 242 158 /home/pi/DSPi/bash/dspiSwitcher.sh debug;
#X connect 0 0 1 0;
#X connect 0 0 18 0;
#X connect 2 0 5 0;
#X connect 3 0 86 0;
#X connect 4 0 0 0;
#X connect 6 0 7 0;
#X connect 7 0 94 0;
#X connect 8 0 9 0;
#X connect 9 0 95 0;
#X connect 10 0 5 0;
#X connect 11 0 5 0;
#X connect 12 0 5 0;
#X connect 13 0 15 0;
#X connect 15 0 14 0;
#X connect 16 0 3 0;
#X connect 18 0 16 0;
#X connect 18 1 6 0;
#X connect 18 2 8 0;
#X connect 30 0 6 0;
#X connect 31 0 35 0;
#X connect 32 0 51 0;
#X connect 33 0 39 0;
#X connect 34 0 41 0;
#X connect 35 0 38 0;
#X connect 36 0 23 0;
#X connect 37 0 23 0;
#X connect 38 0 37 0;
#X connect 38 1 36 0;
#X connect 39 0 40 0;
#X connect 40 0 43 0;
#X connect 40 1 43 1;
#X connect 41 0 42 0;
#X connect 42 0 43 0;
#X connect 42 1 43 1;
#X connect 44 0 31 0;
#X connect 45 0 32 0;
#X connect 46 0 33 0;
#X connect 47 0 34 0;
#X connect 48 0 30 0;
#X connect 50 0 49 0;
#X connect 51 0 54 0;
#X connect 52 0 24 0;
#X connect 53 0 24 0;
#X connect 54 0 53 0;
#X connect 54 1 52 0;
#X connect 56 0 58 0;
#X connect 58 0 57 0;
#X connect 59 0 56 0;
#X connect 62 0 73 0;
#X connect 63 0 73 0;
#X connect 72 0 73 0;
#X connect 86 0 55 0;
#X connect 87 0 88 0;
#X connect 87 1 88 2;
#X connect 89 0 90 0;
#X connect 89 1 90 2;
#X connect 94 0 60 0;
#X connect 95 0 61 0;
